#define bullet_width 16
#define bullet_height 16
static unsigned char bullet_bits[] = {
    0x00, 0x00, 0x00, 0x00, 0x30, 0x06, 0x30, 0x06, 0x30, 0x06, 0x30, 0x06, 0x30, 0x06, 0x30, 0x06, 0x30, 0x06, 0x30, 0x06, 0x30, 0x06, 0x30, 0x06, 0x30, 0x06, 0x30, 0x06, 0x30, 0x06, 0x00, 0x00
}
