#define bullet_width 16
#define bullet_height 16
static unsigned char bullet_bits[] = {
    0x00, 0x00, 0x06, 0x00, 0x1a, 0x00, 0x62, 0x00, 0x82, 0x01, 0x02, 0x06, 0x02, 0x18, 0x02, 0x60, 0x02, 0x18, 0x02, 0x06, 0x82, 0x01, 0x62, 0x00, 0x1a, 0x00, 0x06, 0x00, 0x00, 0x00, 0x00, 0x00
}
