#define bullet_width 16
#define bullet_height 16
static unsigned char bullet_bits[] = {
    0x00, 0x00, 0xfe, 0x7f, 0x28, 0x00, 0xfe, 0x7f, 0x00, 0x00, 0x40, 0x00, 0xc0, 0x00, 0xfe, 0x7d, 0xc2, 0x40, 0x42, 0x40, 0x02, 0x40, 0x02, 0x40, 0x02, 0x40, 0x02, 0x40, 0xfe, 0x7f, 0x00, 0x00
}

