#define bullet_width 16
#define bullet_height 16
static unsigned char bullet_bits[] = {
    0x00, 0x00, 0x00, 0x00, 0x00, 0x08, 0x00, 0x0e, 0x3e, 0x7f, 0x02, 0x4e, 0x02, 0x48, 0x02, 0x40, 0x02, 0x40, 0x02, 0x40, 0x02, 0x40, 0xfe, 0x7f, 0x00, 0x00, 0x00, 0x00, 0x00, 0x00, 0x00, 0x00
}
