#define bullet_width 16
#define bullet_height 16
static unsigned char bullet_bits[] = {
    0x00, 0x00, 0x00, 0x00, 0xe0, 0x03, 0x10, 0x04, 0x08, 0x08, 0x04, 0x10, 0xf4, 0x17, 0x14, 0x14, 0xf4, 0x17, 0x04, 0x10, 0x08, 0x08, 0x10, 0x04, 0xe0, 0x03, 0x00, 0x00, 0x00, 0x00, 0x00, 0x00
}
