#define bullet_width 16
#define bullet_height 16
static unsigned char bullet_bits[] = {
    0x0e, 0x00, 0x0e, 0x00, 0x1f, 0x00, 0xee, 0x3f, 0x14, 0x20, 0xe8, 0x2f, 0x24, 0x2a, 0xe4, 0x2f, 0x04, 0x20, 0xf4, 0x2f, 0x14, 0x28, 0x14, 0x28, 0x14, 0x28, 0xf4, 0x2f, 0x04, 0x20, 0xfc, 0x3f
}
