#define bullet_width 16
#define bullet_height 16
static unsigned char bullet_bits[] = {
    0xff, 0x03, 0x01, 0x02, 0x31, 0x02, 0x49, 0x02, 0x49, 0x02, 0x31, 0x22, 0x01, 0x22, 0x31, 0xfa, 0x49, 0x22, 0x85, 0x22, 0x85, 0x02, 0x49, 0x02, 0x31, 0x02, 0x01, 0x02, 0xff, 0x03, 0x00, 0x00
}
